<svg id="Layer_1" data-name="Layer 1" xmlns="http://www.w3.org/2000/svg" viewBox="0 0 300 106"><title>Artboard 1</title><path d="M30.38,59.6l.62.13-2.18,6.8H9.07v-.68h1a2.57,2.57,0,0,0,2.31-1,5.72,5.72,0,0,0,.4-2.73V45.91A5.13,5.13,0,0,0,12.21,43,2.8,2.8,0,0,0,10,42.16h-1v-.68H20.62v.68a7.18,7.18,0,0,0-2.85.37,2.25,2.25,0,0,0-1.12,1,7.89,7.89,0,0,0-.3,2.82V62.08a5.11,5.11,0,0,0,.3,2.11,1.39,1.39,0,0,0,.7.57,12.69,12.69,0,0,0,2.93.18h1.86a13.86,13.86,0,0,0,4.12-.42A5.46,5.46,0,0,0,28.43,63,12.33,12.33,0,0,0,30.38,59.6Z"/><path d="M45.92,40.9a11.65,11.65,0,0,1,8.61,3.71,12.65,12.65,0,0,1,3.64,9.25,13,13,0,0,1-3.67,9.48,12.44,12.44,0,0,1-17.73.09,13.07,13.07,0,0,1-3.58-9.52,12.58,12.58,0,0,1,4.14-9.74A12.32,12.32,0,0,1,45.92,40.9Zm-.35,1.35a6.77,6.77,0,0,0-5.5,2.5c-1.72,2.06-2.57,5.1-2.57,9.09s.89,7.24,2.67,9.44a6.65,6.65,0,0,0,5.42,2.51A7.43,7.43,0,0,0,51.52,63c1.56-1.84,2.34-4.73,2.34-8.69q0-6.42-2.57-9.59A7,7,0,0,0,45.57,42.25Z"/><path d="M87,41.48v.68A4.18,4.18,0,0,0,85,43a7.65,7.65,0,0,0-1.76,2.77L74.3,67.1h-.7L64,45.5a12.1,12.1,0,0,0-1-2,3.43,3.43,0,0,0-1.16-.9A5.58,5.58,0,0,0,60,42.16v-.68H70.42v.68a4.8,4.8,0,0,0-2.29.59,1.32,1.32,0,0,0-.53,1.09,8.28,8.28,0,0,0,.86,2.88L75,61.41l6-14.5a9.66,9.66,0,0,0,.89-3,1.37,1.37,0,0,0-.55-1,3.58,3.58,0,0,0-1.84-.7l-.32-.05v-.68Z"/><path d="M95.54,42.84v9.91h5.6a4.64,4.64,0,0,0,2.92-.65,4.1,4.1,0,0,0,1.09-3h.7v8.72h-.7a9,9,0,0,0-.53-2.35,2.25,2.25,0,0,0-1.11-1,5.67,5.67,0,0,0-2.37-.37h-5.6v8.26a7.58,7.58,0,0,0,.15,2,1.15,1.15,0,0,0,.52.57,3.25,3.25,0,0,0,1.43.22H102a11.75,11.75,0,0,0,3.14-.3A4.67,4.67,0,0,0,107,63.7a13.88,13.88,0,0,0,2.39-3.45h.76l-2.2,6.28H88.28v-.68h.9a3.56,3.56,0,0,0,1.71-.43,1.57,1.57,0,0,0,.82-.88,8.82,8.82,0,0,0,.21-2.42V45.84q0-2.39-.48-2.94a3,3,0,0,0-2.26-.74h-.9v-.68h19.66l.28,5.48h-.74a8.39,8.39,0,0,0-.87-2.71,3,3,0,0,0-1.42-1.13,8.48,8.48,0,0,0-2.65-.28Z"/><path d="M130.68,50.4h7.9v.68a4.78,4.78,0,0,0-2.41.71,13.42,13.42,0,0,0-2.44,3.53A38.84,38.84,0,0,1,130,60.8a13,13,0,0,0,3,2.69,5.21,5.21,0,0,0,2.65.77,3.52,3.52,0,0,0,2.2-.69,3.81,3.81,0,0,0,1.28-2l.69.49a7.14,7.14,0,0,1-2.23,3.85A5.61,5.61,0,0,1,134,67.1a6.74,6.74,0,0,1-3.13-.82,13.61,13.61,0,0,1-3.47-2.78,16.2,16.2,0,0,1-4.21,2.82,10.25,10.25,0,0,1-4,.78,7.15,7.15,0,0,1-4.93-1.62,5,5,0,0,1-1.83-3.88,7.5,7.5,0,0,1,1.64-4.46q1.64-2.23,6.15-4.61a19.92,19.92,0,0,1-1.2-3.16A9,9,0,0,1,118.7,47a5.52,5.52,0,0,1,2.37-4.82,7.06,7.06,0,0,1,4.19-1.3,5.19,5.19,0,0,1,3.65,1.3,4.2,4.2,0,0,1,1.41,3.21A4.91,4.91,0,0,1,129,48.85a17.78,17.78,0,0,1-4.83,3.23,74.94,74.94,0,0,0,5,7.65c2.21-2.58,3.31-4.77,3.31-6.54a2.28,2.28,0,0,0-.56-1.51,1.76,1.76,0,0,0-1.19-.6Zm-4.27,12q-2.47-3.33-3.44-4.86c-.64-1-1.34-2.29-2.11-3.81a10.81,10.81,0,0,0-3.4,2.81,5.51,5.51,0,0,0-1.13,3.33,5.13,5.13,0,0,0,1.29,3.47,4.41,4.41,0,0,0,3.5,1.5,5.82,5.82,0,0,0,2.29-.46A14.62,14.62,0,0,0,126.41,62.43Zm-2.92-11.55A9.88,9.88,0,0,0,127,48.4a4.64,4.64,0,0,0,1.16-3.08,3,3,0,0,0-.84-2.2,2.75,2.75,0,0,0-2.07-.87,2.89,2.89,0,0,0-2.48,1.12,3.64,3.64,0,0,0-.84,2.19,7.52,7.52,0,0,0,.32,2A32.61,32.61,0,0,0,123.49,50.88Z"/><path d="M167,66.53h-6.81l-8.64-11.71-1.56,0h-.52l-.59,0V62.1c0,1.58.18,2.55.53,2.94a2.71,2.71,0,0,0,2.14.81h1v.68H141.65v-.68h1a2.57,2.57,0,0,0,2.31-1,5.6,5.6,0,0,0,.4-2.71V45.91c0-1.58-.18-2.56-.53-2.94a2.79,2.79,0,0,0-2.18-.81h-1v-.68h9.29a22.51,22.51,0,0,1,6,.58,6.84,6.84,0,0,1,3.27,2.14,5.5,5.5,0,0,1,1.35,3.72,5.76,5.76,0,0,1-1.54,4,8.66,8.66,0,0,1-4.75,2.41l5.27,7.19a12.88,12.88,0,0,0,3.1,3.28,7.89,7.89,0,0,0,3.39,1ZM148.91,53.65H150a8.43,8.43,0,0,0,5.5-1.55,5,5,0,0,0,1.85-4,5.13,5.13,0,0,0-1.49-3.81,5.41,5.41,0,0,0-4-1.47,17.29,17.29,0,0,0-3,.35Z"/><path d="M174.74,42.84v9.91h5.61a4.64,4.64,0,0,0,2.92-.65,4.14,4.14,0,0,0,1.09-3h.69v8.72h-.69a9.44,9.44,0,0,0-.53-2.35,2.25,2.25,0,0,0-1.11-1,5.67,5.67,0,0,0-2.37-.37h-5.61v8.26a7.58,7.58,0,0,0,.15,2,1.17,1.17,0,0,0,.53.57,3.25,3.25,0,0,0,1.43.22h4.33a11.75,11.75,0,0,0,3.14-.3,4.73,4.73,0,0,0,1.88-1.17,13.88,13.88,0,0,0,2.39-3.45h.75l-2.2,6.28H167.48v-.68h.9a3.57,3.57,0,0,0,1.72-.43,1.57,1.57,0,0,0,.82-.88,8.82,8.82,0,0,0,.21-2.42V45.84c0-1.59-.16-2.57-.49-2.94a3,3,0,0,0-2.26-.74h-.9v-.68h19.66l.29,5.48h-.74a8.39,8.39,0,0,0-.87-2.71,3,3,0,0,0-1.42-1.13,8.56,8.56,0,0,0-2.66-.28Z"/><path d="M212.32,59.6l.62.13-2.19,6.8H191v-.68h1a2.57,2.57,0,0,0,2.31-1,5.72,5.72,0,0,0,.4-2.73V45.91a5.13,5.13,0,0,0-.53-2.94,2.8,2.8,0,0,0-2.18-.81h-1v-.68h11.55v.68a7.21,7.21,0,0,0-2.85.37,2.25,2.25,0,0,0-1.12,1,7.89,7.89,0,0,0-.3,2.82V62.08a5.11,5.11,0,0,0,.3,2.11,1.39,1.39,0,0,0,.7.57,12.69,12.69,0,0,0,2.93.18h1.87a14,14,0,0,0,4.12-.42A5.43,5.43,0,0,0,210.36,63,12.57,12.57,0,0,0,212.32,59.6Z"/><path d="M227.86,40.9a11.65,11.65,0,0,1,8.6,3.71,12.65,12.65,0,0,1,3.64,9.25,13.08,13.08,0,0,1-3.66,9.48,12.45,12.45,0,0,1-17.74.09,13.07,13.07,0,0,1-3.58-9.52,12.58,12.58,0,0,1,4.14-9.74A12.32,12.32,0,0,1,227.86,40.9Zm-.36,1.35a6.75,6.75,0,0,0-5.49,2.5c-1.72,2.06-2.58,5.1-2.58,9.09s.89,7.24,2.67,9.44a6.66,6.66,0,0,0,5.42,2.51A7.43,7.43,0,0,0,233.45,63c1.57-1.84,2.35-4.73,2.35-8.69q0-6.42-2.58-9.59A7,7,0,0,0,227.5,42.25Z"/><path d="M268.94,41.48v.68a4.18,4.18,0,0,0-2.05.85,7.65,7.65,0,0,0-1.76,2.77l-8.9,21.32h-.7L246,45.5a12.1,12.1,0,0,0-1-2,3.43,3.43,0,0,0-1.16-.9,5.52,5.52,0,0,0-1.85-.41v-.68h10.42v.68a4.8,4.8,0,0,0-2.29.59,1.32,1.32,0,0,0-.53,1.09,8.14,8.14,0,0,0,.87,2.88l6.48,14.69,6-14.5a9.55,9.55,0,0,0,.88-3,1.37,1.37,0,0,0-.55-1,3.58,3.58,0,0,0-1.84-.7l-.32-.05v-.68Z"/><path d="M277.47,42.84v9.91h5.61A4.63,4.63,0,0,0,286,52.1a4.1,4.1,0,0,0,1.09-3h.7v8.72h-.7a9.59,9.59,0,0,0-.52-2.35,2.34,2.34,0,0,0-1.11-1,5.73,5.73,0,0,0-2.37-.37h-5.61v8.26a7.58,7.58,0,0,0,.15,2,1.12,1.12,0,0,0,.53.57,3.22,3.22,0,0,0,1.43.22h4.32a11.7,11.7,0,0,0,3.14-.3,4.77,4.77,0,0,0,1.89-1.17,14.44,14.44,0,0,0,2.39-3.45h.75l-2.2,6.28H270.21v-.68h.9a3.56,3.56,0,0,0,1.71-.43,1.54,1.54,0,0,0,.82-.88,8.69,8.69,0,0,0,.22-2.42V45.84c0-1.59-.17-2.57-.49-2.94a3,3,0,0,0-2.26-.74h-.9v-.68h19.66l.28,5.48h-.73a8.6,8.6,0,0,0-.88-2.71,3,3,0,0,0-1.42-1.13,8.48,8.48,0,0,0-2.65-.28Z"/></svg>