<svg id="Layer_1" data-name="Layer 1" xmlns="http://www.w3.org/2000/svg" viewBox="0 0 300 106"><title>Artboard 1</title><path d="M40.57,38.14v.76a4.68,4.68,0,0,0-2.28.94,8.49,8.49,0,0,0-2,3.08L26.38,66.56h-.77l-10.67-24a12.8,12.8,0,0,0-1.15-2.25,3.62,3.62,0,0,0-1.29-1,6.11,6.11,0,0,0-2.07-.46v-.76H22.06v.76a5.36,5.36,0,0,0-2.56.66,1.49,1.49,0,0,0-.59,1.21,8.94,8.94,0,0,0,1,3.19l7.24,16.29,6.71-16.08a10.68,10.68,0,0,0,1-3.3,1.53,1.53,0,0,0-.61-1.14A4,4,0,0,0,32.16,39l-.36-.06v-.76Z"/><path d="M60.22,56.63h-11L47.27,61a6.94,6.94,0,0,0-.71,2.42,1.4,1.4,0,0,0,.62,1.11,5.41,5.41,0,0,0,2.67.63v.76h-9v-.76a4.94,4.94,0,0,0,2.31-.8,12.67,12.67,0,0,0,2.37-4l10-22.86h.74l9.91,23.11a10.46,10.46,0,0,0,2.17,3.62,4.53,4.53,0,0,0,2.72.93v.76H59.89v-.76a4.41,4.41,0,0,0,2.3-.55,1.42,1.42,0,0,0,.59-1.15A8.52,8.52,0,0,0,62,60.62Zm-.58-1.52L54.81,43.88l-5,11.23Z"/><path d="M70,38.14h7.73L95.16,59V43c0-1.71-.2-2.77-.59-3.2a3.16,3.16,0,0,0-2.45-.86h-1v-.76H101v.76h-1A2.92,2.92,0,0,0,97.47,40,6,6,0,0,0,97,43V66.38h-.76L77.49,44V61.11c0,1.71.18,2.78.56,3.2a3.21,3.21,0,0,0,2.46.86h1v.76H71.61v-.76h1a3,3,0,0,0,2.58-1.07,6.16,6.16,0,0,0,.46-3V41.79a12.88,12.88,0,0,0-1.88-1.86,7,7,0,0,0-1.88-.84A6.5,6.5,0,0,0,70,38.9Z"/><path d="M101.38,65.93v-.76h1.07A2.86,2.86,0,0,0,105,64a6.25,6.25,0,0,0,.46-3V43.06c0-1.73-.19-2.82-.58-3.26a3.14,3.14,0,0,0-2.44-.9h-1.07v-.76H113c4.25,0,7.49.48,9.7,1.42A11.44,11.44,0,0,1,128,44.27a14.27,14.27,0,0,1,2,7.62,13.67,13.67,0,0,1-3.61,9.69q-4.05,4.35-12.34,4.35Zm8.12-2a22.11,22.11,0,0,0,4.47.57,10.76,10.76,0,0,0,8.09-3.34q3.21-3.33,3.21-9T122.06,43a11,11,0,0,0-8.25-3.32,18.12,18.12,0,0,0-4.31.6Z"/><path d="M159.74,65.93h-7.6l-9.63-13c-.72,0-1.3,0-1.74,0h-.59l-.65,0V61c0,1.75.19,2.83.58,3.26a3,3,0,0,0,2.4.9h1.11v.76h-12.2v-.76h1.07A2.89,2.89,0,0,0,135.08,64a6.38,6.38,0,0,0,.44-3V43.06c0-1.75-.2-2.83-.59-3.26a3.14,3.14,0,0,0-2.44-.9h-1.07v-.76h10.37a25.24,25.24,0,0,1,6.69.65,7.64,7.64,0,0,1,3.65,2.38,6.08,6.08,0,0,1,1.5,4.12,6.41,6.41,0,0,1-1.71,4.45,9.66,9.66,0,0,1-5.3,2.66l5.88,8A14.28,14.28,0,0,0,156,64a8.88,8.88,0,0,0,3.78,1.15ZM139.53,51.65h1.17c2.72,0,4.76-.58,6.14-1.72a5.46,5.46,0,0,0,2.07-4.39,5.67,5.67,0,0,0-1.67-4.23,6,6,0,0,0-4.42-1.63,18.83,18.83,0,0,0-3.29.39Z"/><path d="M177.87,38.9v-.76H188v.76h-1.08a2.9,2.9,0,0,0-2.58,1.38,6.16,6.16,0,0,0-.44,2.95V54.49A19.42,19.42,0,0,1,183,61a8.12,8.12,0,0,1-3.34,4,12.07,12.07,0,0,1-6.76,1.65q-4.67,0-7.08-1.57a8.6,8.6,0,0,1-3.42-4.25,22.88,22.88,0,0,1-.67-6.84V43.06c0-1.71-.24-2.83-.73-3.36a3,3,0,0,0-2.34-.8h-1.07v-.76h12.3v.76H168.8A2.85,2.85,0,0,0,166.28,40a5.92,5.92,0,0,0-.52,3.07V55.17a26.4,26.4,0,0,0,.3,3.71,7.93,7.93,0,0,0,1.1,3.26,6,6,0,0,0,2.3,1.92,8.06,8.06,0,0,0,3.69.76,10.25,10.25,0,0,0,5-1.19,6.36,6.36,0,0,0,3-3,17.21,17.21,0,0,0,.81-6.28V43.06c0-1.73-.19-2.82-.59-3.26a3.1,3.1,0,0,0-2.43-.9Z"/><path d="M187.84,38.14h7.72L213,59V43c0-1.71-.2-2.77-.59-3.2a3.18,3.18,0,0,0-2.46-.86h-1v-.76h9.9v.76h-1A2.94,2.94,0,0,0,215.27,40a6.16,6.16,0,0,0-.46,3V66.38h-.75L195.29,44V61.11c0,1.71.19,2.78.57,3.2a3.2,3.2,0,0,0,2.45.86h1v.76h-9.91v-.76h1A2.94,2.94,0,0,0,193,64.1a6,6,0,0,0,.47-3V41.79a13.41,13.41,0,0,0-1.88-1.86,7.15,7.15,0,0,0-1.88-.84,6.55,6.55,0,0,0-1.85-.19Z"/><path d="M231.72,65.17v.76h-12.2v-.76h1a3.09,3.09,0,0,0,2.56-1,6.1,6.1,0,0,0,.5-3.16V43.06a9,9,0,0,0-.27-2.78,1.88,1.88,0,0,0-.86-.89,4.13,4.13,0,0,0-1.93-.49h-1v-.76h12.2v.76h-1a3,3,0,0,0-2.54,1,5.86,5.86,0,0,0-.53,3.15V61a9,9,0,0,0,.28,2.79,1.86,1.86,0,0,0,.88.88,3.91,3.91,0,0,0,1.91.49Z"/><path d="M257.65,37.51,258.3,47h-.65a11.86,11.86,0,0,0-3.72-6.1A9.22,9.22,0,0,0,248.14,39,9.55,9.55,0,0,0,243,40.39a9.27,9.27,0,0,0-3.6,4.47,19.45,19.45,0,0,0-1.31,7.65A16,16,0,0,0,239.34,59a9.1,9.1,0,0,0,3.73,4.24,10.86,10.86,0,0,0,5.68,1.48,10,10,0,0,0,4.89-1.16A15.85,15.85,0,0,0,258.3,59l.65.41a14.73,14.73,0,0,1-5,5.43,12.84,12.84,0,0,1-6.78,1.72q-7.06,0-10.95-5.12a14.41,14.41,0,0,1-2.9-9,15.7,15.7,0,0,1,1.91-7.65,13.67,13.67,0,0,1,5.26-5.4,14.53,14.53,0,0,1,7.31-1.91A13.71,13.71,0,0,1,253.89,39a3.39,3.39,0,0,0,1.26.45,1.4,1.4,0,0,0,1-.38,3.2,3.2,0,0,0,.77-1.54Z"/><path d="M272.29,50.52,282.78,60.7a18.79,18.79,0,0,0,4.41,3.43,9.51,9.51,0,0,0,3.65,1v.76H277.3v-.76a2.93,2.93,0,0,0,1.75-.4,1.12,1.12,0,0,0,.54-.89,1.93,1.93,0,0,0-.2-.88,7.72,7.72,0,0,0-1.31-1.46l-9.83-9.48V61a9,9,0,0,0,.28,2.79,1.86,1.86,0,0,0,.88.88,3.91,3.91,0,0,0,1.91.49h1v.76H260.15v-.76h1a3.09,3.09,0,0,0,2.56-1,6.06,6.06,0,0,0,.51-3.16V43.06a9.24,9.24,0,0,0-.28-2.81,1.92,1.92,0,0,0-.86-.86,4.13,4.13,0,0,0-1.93-.49h-1v-.76h12.14v.76h-1a4.21,4.21,0,0,0-1.91.47,1.78,1.78,0,0,0-.9,1,9,9,0,0,0-.26,2.7v8.5c.29-.25,1.24-1.12,2.88-2.6q6.24-5.57,7.54-7.44a2.66,2.66,0,0,0,.56-1.43,1,1,0,0,0-.44-.83,2.38,2.38,0,0,0-1.49-.36h-.65v-.76H287.1v.76a6.58,6.58,0,0,0-1.67.25,8.63,8.63,0,0,0-1.85.87,17.47,17.47,0,0,0-2.69,2.08q-.47.4-4.26,4.2Z"/></svg>